<?xml version="1.0" encoding="UTF-8"?>
<svg width="800" height="400" viewBox="0 0 800 400" xmlns="http://www.w3.org/2000/svg">
  <defs>
    <linearGradient id="grad1" x1="0%" y1="0%" x2="100%" y2="100%">
      <stop offset="0%" style="stop-color:#0e7490;stop-opacity:1" />
      <stop offset="100%" style="stop-color:#06b6d4;stop-opacity:1" />
    </linearGradient>
    <linearGradient id="grad2" x1="0%" y1="0%" x2="100%" y2="100%">
      <stop offset="0%" style="stop-color:#ffffff;stop-opacity:0.1" />
      <stop offset="100%" style="stop-color:#ffffff;stop-opacity:0.3" />
    </linearGradient>
  </defs>
  
  <!-- Background -->
  <rect width="800" height="400" fill="url(#grad1)"/>
  
  <!-- Decorative Elements -->
  <circle cx="700" cy="300" r="90" fill="url(#grad2)" opacity="0.5"/>
  <circle cx="100" cy="100" r="70" fill="url(#grad2)" opacity="0.6"/>
  <circle cx="400" cy="200" r="40" fill="url(#grad2)" opacity="0.4"/>
  
  <!-- Clipboard -->
  <g transform="translate(250, 200)">
    <!-- Clipboard Board -->
    <rect x="-60" y="-80" width="120" height="160" rx="5" fill="white" opacity="0.9"/>
    <rect x="-50" y="-70" width="100" height="140" rx="2" stroke="#0e7490" stroke-width="1" fill="none"/>
    
    <!-- Clipboard Top -->
    <rect x="-40" y="-95" width="80" height="20" rx="10" fill="#06b6d4" opacity="0.9"/>
    <circle cx="0" cy="-85" r="7" fill="white"/>
    
    <!-- Clipboard Content -->
    <rect x="-40" y="-55" width="80" height="10" rx="2" fill="#06b6d4" opacity="0.7"/>
    <rect x="-40" y="-35" width="50" height="8" rx="2" fill="#06b6d4" opacity="0.7"/>
    <rect x="-40" y="-15" width="70" height="8" rx="2" fill="#06b6d4" opacity="0.7"/>
    
    <!-- Checkboxes -->
    <rect x="-40" y="5" width="15" height="15" rx="2" stroke="#0e7490" stroke-width="2" fill="none"/>
    <rect x="-40" y="30" width="15" height="15" rx="2" stroke="#0e7490" stroke-width="2" fill="none"/>
    <rect x="-40" y="55" width="15" height="15" rx="2" stroke="#0e7490" stroke-width="2" fill="none"/>
    
    <!-- Checkbox Text -->
    <rect x="-15" y="5" width="60" height="8" rx="2" fill="#06b6d4" opacity="0.7"/>
    <rect x="-15" y="30" width="50" height="8" rx="2" fill="#06b6d4" opacity="0.7"/>
    <rect x="-15" y="55" width="55" height="8" rx="2" fill="#06b6d4" opacity="0.7"/>
    
    <!-- Checkbox Check -->
    <path d="M-37,10 L-32,15 L-25,5" stroke="#0e7490" stroke-width="2" fill="none" stroke-linecap="round" stroke-linejoin="round"/>
  </g>
  
  <!-- Test Tube/Lab Equipment -->
  <g transform="translate(400, 200)">
    <!-- Test Tubes -->
    <g transform="rotate(-15)">
      <rect x="-12" y="-60" width="24" height="120" rx="12" fill="white" opacity="0.9"/>
      <rect x="-10" y="-20" width="20" height="78" rx="10" fill="#06b6d4" opacity="0.5"/>
      <rect x="-12" y="-60" width="24" height="20" rx="5" fill="#0e7490" opacity="0.8"/>
    </g>
    
    <g transform="rotate(15) translate(40, 0)">
      <rect x="-10" y="-50" width="20" height="100" rx="10" fill="white" opacity="0.9"/>
      <rect x="-8" y="-10" width="16" height="58" rx="8" fill="#06b6d4" opacity="0.5"/>
      <rect x="-10" y="-50" width="20" height="15" rx="5" fill="#0e7490" opacity="0.8"/>
    </g>
    
    <g transform="rotate(-5) translate(-40, 10)">
      <rect x="-8" y="-40" width="16" height="80" rx="8" fill="white" opacity="0.9"/>
      <rect x="-6" y="0" width="12" height="38" rx="6" fill="#06b6d4" opacity="0.5"/>
      <rect x="-8" y="-40" width="16" height="12" rx="4" fill="#0e7490" opacity="0.8"/>
    </g>
  </g>
  
  <!-- Magnifying Glass -->
  <g transform="translate(550, 180) rotate(-15)">
    <!-- Handle -->
    <rect x="20" y="20" width="15" height="60" rx="7.5" fill="white" opacity="0.9"/>
    
    <!-- Glass -->
    <circle cx="0" cy="0" r="40" fill="none" stroke="white" stroke-width="10" opacity="0.9"/>
    <circle cx="0" cy="0" r="35" fill="#06b6d4" opacity="0.2"/>
    
    <!-- Crosshair -->
    <line x1="-20" y1="0" x2="20" y2="0" stroke="white" stroke-width="2"/>
    <line x1="0" y1="-20" x2="0" y2="20" stroke="white" stroke-width="2"/>
  </g>
  
  <!-- Abstract Wave Pattern -->
  <path d="M0,350 C50,330 100,375 150,355 C200,335 250,380 300,360 C350,340 400,385 450,365 C500,345 550,390 600,370 C650,350 700,395 750,375 C800,355 800,400 800,400 L0,400 Z" fill="#0e7490" opacity="0.7"/>
</svg>